<svg id="Layer_1" data-name="Layer 1" xmlns="http://www.w3.org/2000/svg" viewBox="0 0 64 64"><defs><style>.cls-1{fill:#3a3a3a;fill-rule:evenodd;}</style></defs><g id="dark"><path id="behance" class="cls-1" d="M32,0A32,32,0,1,1,0,32,32,32,0,0,1,32,0ZM54,38.68a21,21,0,0,0-.53-4.34,10.74,10.74,0,0,0-1.71-3.7,8.75,8.75,0,0,0-3-2.58,9.19,9.19,0,0,0-4.33-1,10.09,10.09,0,0,0-4.07.8,9.41,9.41,0,0,0-5.2,5.44,11.53,11.53,0,0,0-.71,4.07,11.83,11.83,0,0,0,.7,4.16,9.7,9.7,0,0,0,2,3.25,8.91,8.91,0,0,0,3.15,2.09,11.21,11.21,0,0,0,4.16.74A10.16,10.16,0,0,0,50,46.12,8.83,8.83,0,0,0,53.5,41H48.79a3.24,3.24,0,0,1-1.43,1.81,4.71,4.71,0,0,1-2.79.82,4.73,4.73,0,0,1-3.46-1.18A5.17,5.17,0,0,1,39.79,39H54v-.32ZM23,47a13.62,13.62,0,0,0,3.51-.45,9.21,9.21,0,0,0,3.06-1.4,7,7,0,0,0,2.12-2.44,7.58,7.58,0,0,0,.78-3.54,7.68,7.68,0,0,0-1.21-4.34,6.45,6.45,0,0,0-3.69-2.51,6.59,6.59,0,0,0,2.74-2.23,6,6,0,0,0,.92-3.4,7.46,7.46,0,0,0-.61-3.17,5.18,5.18,0,0,0-1.76-2.05,7.55,7.55,0,0,0-2.71-1.12,16.49,16.49,0,0,0-3.5-.34H10V47H23Zm-.91-11a4.63,4.63,0,0,1,2.92.84,3.29,3.29,0,0,1,1.11,2.8,3.48,3.48,0,0,1-.34,1.65,2.73,2.73,0,0,1-.91,1,3.68,3.68,0,0,1-1.33.53A6.64,6.64,0,0,1,22,43H16V35l6.49,1Zm25.16-4.09a4,4,0,0,0-3-1.08,4.49,4.49,0,0,0-2.13.44,4.34,4.34,0,0,0-1.36,1.07A4,4,0,0,0,40,33.71,6.37,6.37,0,0,0,39.78,35h8.71a5.23,5.23,0,0,0-1.24-3.09ZM21.29,25a7.71,7.71,0,0,1,1.46.12,3.47,3.47,0,0,1,1.24.46,2.33,2.33,0,0,1,.87.89A3.06,3.06,0,0,1,25.18,28a2.69,2.69,0,0,1-1,2.33,4.1,4.1,0,0,1-2.49.72H16V25ZM50,25V22H39v3Z"/></g></svg>