<svg id="Layer_1" data-name="Layer 1" xmlns="http://www.w3.org/2000/svg" viewBox="0 0 64 64"><defs><style>.cls-1{fill:#3a3a3a;fill-rule:evenodd;}</style></defs><g id="dark"><path id="dribble" class="cls-1" d="M32,0A32,32,0,1,1,0,32,32,32,0,0,1,32,0Zm0,11.38A20.62,20.62,0,1,0,52.62,32,20.63,20.63,0,0,0,32,11.38Zm0,38.25a17.46,17.46,0,0,1-10.8-3.72c.31-.64,3.89-7.53,13.82-11a.37.37,0,0,0,.11,0,71.45,71.45,0,0,1,3.76,13.36A17.29,17.29,0,0,1,32,49.63Zm9.82-3a75.45,75.45,0,0,0-3.43-12.55,25.92,25.92,0,0,1,11,.75A17.46,17.46,0,0,1,41.82,46.61ZM14,32v-.54A64,64,0,0,0,32.1,29c.51,1,1,2,1.43,3l-.69.2c-9.09,2.93-13.92,10.94-14.32,11.61A17.57,17.57,0,0,1,14,32ZM45.62,20.88a17.58,17.58,0,0,1,4,11,41.22,41.22,0,0,0-12.26-.56c-.14-.29-.25-.61-.38-.92-.36-.85-.76-1.72-1.17-2.55a23.56,23.56,0,0,0,9.82-6.94ZM24.5,16.07A109.54,109.54,0,0,1,31,26.25,66.23,66.23,0,0,1,14.75,28.4,17.73,17.73,0,0,1,24.5,16.07ZM32,14.42a17.55,17.55,0,0,1,11.67,4.42c-.31.45-3,4-9.23,6.36a94.77,94.77,0,0,0-6.58-10.31A17.58,17.58,0,0,1,32,14.42Z"/></g></svg>