<svg id="Layer_1" data-name="Layer 1" xmlns="http://www.w3.org/2000/svg" viewBox="0 0 63.98 63.13"><defs><style>.cls-1{fill:#3a3a3a;fill-rule:evenodd;}</style></defs><g id="dark"><path id="facebook" class="cls-1" d="M31.88,64h0Zm.22,0h0Zm-.32,0h0Zm.43,0h0Zm-.52,0h0Zm.62,0h0Zm.1,0Zm-.84,0h0Zm1,0h0Zm-1.05,0h0Zm1.15,0h0Zm-1.25,0h0Zm-.12,0h0Zm1.47,0Zm-1.57,0h0Zm1.67,0h0Zm.11,0h0Zm-1.87,0h0ZM31,64h0ZM33,64h0Zm.1,0h0Zm-2.29,0h0Zm-.1,0h0Zm2.5,0h0Zm-2.59,0h0Zm2.69,0h0Zm-2.82,0h0Zm2.92,0h0Zm-3,0h0Zm3.11,0h0Zm-3.2,0h0Zm3.31,0h0Zm.1,0h0Zm-3.49,0h0Zm3.59,0h0Zm-3.73,0h0ZM30,64h0ZM34,64h0Zm-4,0h0Zm4.12,0h0Zm.1,0h0Zm-4.35,0h0Zm-.09,0h0Zm4.54,0h0Zm-4.63,0h0Zm4.73,0h0Zm-4.85,0h0Zm4.95,0h0Zm.1,0h0Zm-5.14,0h0Zm-.09,0h0Zm5.33,0h0Zm-5.43,0h0Zm5.54-.12Zm.1.12h0Zm-5.75,0h0ZM29,64h0ZM35,64h0Zm-8-1.25C10.62,60.25-1.64,45.63.19,28.64,1.75,14.23,13.4,2.93,27.77,1.13,47.31-1.31,64,13.47,64,32c0,15.53-11.71,28.42-27,30.75V41h7.45l1.42-9H37V26c0-2.53,1.24-5,5.22-5H46V13.13a48.25,48.25,0,0,0-7.07-.62C31.72,12.51,27,16.94,27,25V32H19v9h8Z" transform="translate(-0.01 -0.87)"/></g></svg>