<svg id="Layer_1" data-name="Layer 1" xmlns="http://www.w3.org/2000/svg" viewBox="0 0 64 64"><defs><style>.cls-1,.cls-2{fill:#3a3a3a;}.cls-1{fill-rule:evenodd;}</style></defs><g id="dark"><g id="github"><path class="cls-1" d="M30.51,0C14,.82.64,14.66.05,31.6A32.77,32.77,0,0,0,21.91,63.94c1.6.31,2.19-.71,2.19-1.57s0-3.37-.05-6.11c-8.9,2-10.78-3.87-10.78-3.87-1.45-3.8-3.55-4.81-3.55-4.81-2.9-2,.22-2,.22-2,3.21.23,4.9,3.38,4.9,3.38,2.86,5,7.49,3.57,9.32,2.73a7,7,0,0,1,2-4.39c-7.11-.83-14.58-3.64-14.58-16.21a12.9,12.9,0,0,1,3.29-8.81,12.12,12.12,0,0,1,.31-8.68S17.9,12.73,24,17a29.71,29.71,0,0,1,16,0c6.11-4.24,8.79-3.36,8.79-3.36a12,12,0,0,1,.32,8.68,12.86,12.86,0,0,1,3.29,8.81c0,12.6-7.48,15.37-14.61,16.19,1.15,1,2.17,3,2.17,6.07,0,4.39,0,7.92,0,9,0,.87.58,1.89,2.2,1.57A32.75,32.75,0,0,0,64,32.81C64,14.17,48.87-.84,30.51,0Z" transform="translate(-0.03 0)"/><path class="cls-2" d="M12,47.11c-.07.16-.32.21-.55.1s-.36-.33-.28-.49.32-.22.55-.11.36.33.28.5Zm-.39-.3" transform="translate(-0.03 0)"/><path class="cls-2" d="M13.29,48.59c-.15.15-.45.08-.66-.15a.51.51,0,0,1-.09-.68c.16-.15.45-.08.66.15s.25.53.09.68ZM13,48.25" transform="translate(-0.03 0)"/><path class="cls-2" d="M14.55,50.48c-.2.14-.52,0-.72-.28a.6.6,0,0,1,0-.79c.2-.14.51,0,.71.28s.2.65,0,.79Zm0,0" transform="translate(-0.03 0)"/><path class="cls-2" d="M16.28,52.31a.6.6,0,0,1-.82-.13.65.65,0,0,1-.19-.84c.18-.2.56-.14.83.13a.64.64,0,0,1,.18.84Zm0,0" transform="translate(-0.03 0)"/><path class="cls-2" d="M18.66,53.37c-.07.25-.43.37-.8.26s-.6-.41-.52-.67.43-.38.8-.27.6.41.52.68Zm0,0" transform="translate(-0.03 0)"/><path class="cls-2" d="M21.28,53.56c0,.27-.3.5-.68.5s-.69-.21-.69-.47.3-.5.68-.51.69.21.69.48Zm0,0" transform="translate(-0.03 0)"/><path class="cls-2" d="M23.72,53.14c0,.26-.22.53-.6.6s-.71-.09-.76-.35.22-.54.59-.61.72.09.77.36Zm0,0" transform="translate(-0.03 0)"/></g></g></svg>