<svg id="Layer_1" data-name="Layer 1" xmlns="http://www.w3.org/2000/svg" viewBox="0 0 64 64"><defs><style>.cls-1{fill:#3a3a3a;fill-rule:evenodd;}</style></defs><g id="dark"><path id="instagram" class="cls-1" d="M32,0A32,32,0,1,1,0,32,32,32,0,0,1,32,0Zm0,12c-5.43,0-6.12,0-8.25.12a14.31,14.31,0,0,0-4.85.93,10,10,0,0,0-3.55,2.3,9.85,9.85,0,0,0-2.3,3.55,14.82,14.82,0,0,0-.93,4.85C12,25.88,12,26.57,12,32s0,6.12.12,8.25a14.31,14.31,0,0,0,.93,4.85,10,10,0,0,0,2.3,3.55A9.85,9.85,0,0,0,18.9,51a14.82,14.82,0,0,0,4.85.93c2.13.1,2.82.12,8.25.12s6.12,0,8.25-.12A14.31,14.31,0,0,0,45.1,51a10,10,0,0,0,3.55-2.3A9.85,9.85,0,0,0,51,45.1a14.82,14.82,0,0,0,.93-4.85C52,38.12,52,37.43,52,32s0-6.12-.12-8.25A14.31,14.31,0,0,0,51,18.9a10,10,0,0,0-2.3-3.55,9.85,9.85,0,0,0-3.55-2.3,14.82,14.82,0,0,0-4.85-.93C38.12,12,37.43,12,32,12Zm0,3.6c5.34,0,6,0,8.08.12a11.27,11.27,0,0,1,3.72.69,6.56,6.56,0,0,1,3.79,3.79,11.27,11.27,0,0,1,.69,3.72c.09,2.11.12,2.74.12,8.08s0,6-.12,8.08a11.27,11.27,0,0,1-.69,3.72,6.56,6.56,0,0,1-3.79,3.79,11.27,11.27,0,0,1-3.72.69c-2.11.09-2.74.12-8.08.12s-6,0-8.08-.12a11.27,11.27,0,0,1-3.72-.69,6.54,6.54,0,0,1-3.79-3.8,11.13,11.13,0,0,1-.69-3.71C15.63,38,15.6,37.33,15.6,32s0-6,.12-8.08a11.13,11.13,0,0,1,.69-3.71,6.1,6.1,0,0,1,1.49-2.3,6.2,6.2,0,0,1,2.3-1.5,11.07,11.07,0,0,1,3.72-.68c2.11-.09,2.74-.12,8.08-.12Zm0,6.13A10.27,10.27,0,1,0,42.27,32,10.27,10.27,0,0,0,32,21.73Zm0,16.94A6.67,6.67,0,1,1,38.67,32,6.67,6.67,0,0,1,32,38.67ZM45.08,21.32a2.4,2.4,0,1,1-2.4-2.4A2.39,2.39,0,0,1,45.08,21.32Z"/></g></svg>