<svg id="Layer_1" data-name="Layer 1" xmlns="http://www.w3.org/2000/svg" viewBox="0 0 64 64"><defs><style>.cls-1{fill:#3a3a3a;fill-rule:evenodd;}</style></defs><g id="dark"><path id="linkedin" class="cls-1" d="M32,0A32,32,0,1,1,0,32,32,32,0,0,1,32,0ZM22,50V25H14V50Zm30,0V35.63c0-7.65-4.09-11.21-9.54-11.21A8.23,8.23,0,0,0,35,28.53V25H26.45c.11,2.35,0,25,0,25H35V36a5.43,5.43,0,0,1,.28-2,4.67,4.67,0,0,1,4.39-3C42.76,31,44,33.27,44,36.63V50ZM17.9,13.36c-2.85,0-4.7,1.87-4.7,4.32A4.3,4.3,0,0,0,17.78,22h.06c2.89,0,4.7-1.92,4.7-4.32a4.31,4.31,0,0,0-4.64-4.32Z"/></g></svg>