<svg id="Layer_1" data-name="Layer 1" xmlns="http://www.w3.org/2000/svg" viewBox="0 0 64 64"><defs><style>.cls-1{fill:#3a3a3a;}</style></defs><g id="mail"><path class="cls-1" d="M32,0A32,32,0,1,0,64,32,32,32,0,0,0,32,0ZM49.25,48H14.75a3.59,3.59,0,0,1-2.46-.93l11.9-11.9.83.6q1.34,1,2.16,1.53a14.11,14.11,0,0,0,2.22,1.13A6.79,6.79,0,0,0,32,39h0a6.79,6.79,0,0,0,2.58-.57,14.11,14.11,0,0,0,2.22-1.13q.82-.55,2.16-1.53l.83-.6,11.9,11.9A3.59,3.59,0,0,1,49.25,48ZM12,43.81V26a12.17,12.17,0,0,0,2.33,2q4.91,3.33,8,5.49Zm40,0L41.68,33.5q3.3-2.31,8-5.5A12.88,12.88,0,0,0,52,26Zm-.15-20.52A11.18,11.18,0,0,1,49,26.17l-8.59,6L38,33.79l-.35.25L37,34.5c-.51.37-.93.67-1.27.89s-.74.48-1.22.77a6.93,6.93,0,0,1-1.34.63A3.82,3.82,0,0,1,32,37h0a3.72,3.72,0,0,1-1.17-.21,6.73,6.73,0,0,1-1.35-.63c-.48-.29-.89-.54-1.22-.77s-.76-.52-1.27-.89L26.33,34,26,33.79l-2.37-1.66-3.77-2.62q-4-2.78-4.81-3.34a11.49,11.49,0,0,1-2.74-2.71A5.44,5.44,0,0,1,11,20.27a4.72,4.72,0,0,1,1-3.05A3.37,3.37,0,0,1,14.75,16h34.5a3.67,3.67,0,0,1,2.64,1.1A3.61,3.61,0,0,1,53,19.75,6.19,6.19,0,0,1,51.85,23.29Z" transform="translate(0 0)"/></g></svg>