<svg id="Layer_1" data-name="Layer 1" xmlns="http://www.w3.org/2000/svg" viewBox="0 0 64 64"><defs><style>.cls-1{fill:#3a3a3a;fill-rule:evenodd;}</style></defs><g id="dark"><path id="medium" class="cls-1" d="M32,0A32,32,0,1,1,0,32,32,32,0,0,1,32,0ZM51,49v-.63L48.31,45.5a.9.9,0,0,1-.31-.84V23.34a.92.92,0,0,1,.3-.84L51,19.63V19H40.39L33,37.53,24.59,20H14v-.28l3.23,4.22c.34.31-.23,1.23-.23,1.23V41.74s.61,1.21.19,1.65L13,48.17V49l11-1v.17l-3.52-4.78A1.77,1.77,0,0,1,20,41.74V27.41L29.74,48h1.13L39,27.41V44.46c.29.45.29.54,0,.84l-3,2.94V49Z"/></g></svg>