<svg id="Layer_1" data-name="Layer 1" xmlns="http://www.w3.org/2000/svg" viewBox="0 0 64 64"><defs><style>.cls-1{fill:#3a3a3a;fill-rule:evenodd;}</style></defs><g id="dark"><path id="messenger" class="cls-1" d="M32,0A32,32,0,1,1,0,32,32,32,0,0,1,32,0Zm0,13.1c-11.09,0-19.69,8.13-19.69,19.1a18.73,18.73,0,0,0,6.18,14.13A1.62,1.62,0,0,1,19,47.45l.1,3.5a1.58,1.58,0,0,0,2.22,1.39l3.9-1.72a1.58,1.58,0,0,1,1.05-.08,21.21,21.21,0,0,0,5.7.76c11.09,0,19.69-8.12,19.69-19.1S43.09,13.1,32,13.1ZM20.18,37.78,26,28.61a3,3,0,0,1,4.27-.79l4.6,3.45a1.17,1.17,0,0,0,1.42,0l6.22-4.72a.94.94,0,0,1,1.35,1.25L38,37a3,3,0,0,1-4.27.79l-4.6-3.45a1.19,1.19,0,0,0-1.42,0L21.53,39a.94.94,0,0,1-1.35-1.25Z"/></g></svg>