<svg id="Layer_1" data-name="Layer 1" xmlns="http://www.w3.org/2000/svg" viewBox="0 0 64 64"><defs><style>.cls-1{fill:#3a3a3a;}</style></defs><g id="dark"><path id="pintrest" class="cls-1" d="M32,0A32,32,0,0,0,20.34,61.81a30.53,30.53,0,0,1,.11-9.19c.58-2.5,3.75-15.91,3.75-15.91a11.48,11.48,0,0,1-1-4.75c0-4.45,2.58-7.77,5.79-7.77,2.73,0,4,2,4,4.51,0,2.74-1.75,6.85-2.65,10.65a4.65,4.65,0,0,0,4.74,5.79c5.69,0,10.06-6,10.06-14.66,0-7.66-5.5-13-13.37-13-9.1,0-14.44,6.83-14.44,13.89a12.45,12.45,0,0,0,2.38,7.3,1,1,0,0,1,.22.92l-.89,3.62c-.14.59-.46.72-1.07.43-4-1.86-6.5-7.7-6.5-12.4,0-10.09,7.34-19.36,21.15-19.36,11.09,0,19.72,7.91,19.72,18.48,0,11-7,19.91-16.6,19.91-3.24,0-6.3-1.69-7.34-3.68l-2,7.61a35.54,35.54,0,0,1-4,8.39A32,32,0,1,0,32,0Z" transform="translate(0 0)"/></g></svg>