<svg id="Layer_1" data-name="Layer 1" xmlns="http://www.w3.org/2000/svg" viewBox="0 0 64 64"><defs><style>.cls-1{fill:#3a3a3a;fill-rule:evenodd;}</style></defs><g id="dark"><path id="reddit" class="cls-1" d="M32,0A32,32,0,1,1,0,32,32,32,0,0,1,32,0ZM53.33,32a4.68,4.68,0,0,0-4.67-4.68,4.49,4.49,0,0,0-3.22,1.31,23.1,23.1,0,0,0-12.46-4l2.13-10L42,16.14a3.33,3.33,0,1,0,3.33-3.48,3.21,3.21,0,0,0-3,1.87l-7.75-1.65A.91.91,0,0,0,34,13a.88.88,0,0,0-.38.52L31.29,24.66a22.71,22.71,0,0,0-12.65,4A4.66,4.66,0,0,0,10.74,32a4.66,4.66,0,0,0,2.77,4.27,8.25,8.25,0,0,0-.11,1.42c0,7.19,8.34,13,18.68,13s18.68-5.8,18.68-13a7.79,7.79,0,0,0-.12-1.38A4.83,4.83,0,0,0,53.33,32ZM39.93,44.12c-2.28,2.29-6.62,2.44-7.89,2.44s-5.66-.19-7.9-2.44a.87.87,0,1,1,1.23-1.23c1.42,1.42,4.49,2,6.7,2s5.24-.53,6.7-2a.88.88,0,0,1,1.24,0,1,1,0,0,1-.08,1.23Zm-18.6-8.79a3.33,3.33,0,1,1,3.33,3.33A3.34,3.34,0,0,1,21.33,35.33Zm18,3.33a3.33,3.33,0,1,1,3.33-3.33A3.34,3.34,0,0,1,39.34,38.66Z"/></g></svg>