<svg id="Layer_1" data-name="Layer 1" xmlns="http://www.w3.org/2000/svg" viewBox="0 0 64 64"><defs><style>.cls-1{fill:#3a3a3a;fill-rule:evenodd;}</style></defs><g id="dark"><path id="snap_chat" data-name="snap chat" class="cls-1" d="M32,0A32,32,0,1,1,0,32,32,32,0,0,1,32,0ZM45.91,48.12a.52.52,0,0,0,.56-.41c.1-.33.17-.64.24-1,.19-.87.31-1.28.63-1.33,3.87-.6,5-1.41,5.23-2a1,1,0,0,0,.06-.25.43.43,0,0,0-.37-.45c-6-1-8.63-7.07-8.74-7.33v0a2.27,2.27,0,0,1-.22-1.91c.41-1,1.75-1.38,2.63-1.66l.58-.2c1.55-.61,1.86-1.23,1.86-1.64a1.32,1.32,0,0,0-1-1.07h0a1.83,1.83,0,0,0-.71-.13,1.55,1.55,0,0,0-.63.12,5.38,5.38,0,0,1-2,.56h0a1.77,1.77,0,0,1-1.16-.4c0-.37,0-.75.08-1.14v-.13c.18-2.81.4-6.31-.49-8.31A10.8,10.8,0,0,0,32.4,13h-.83a10.77,10.77,0,0,0-10,6.45c-.89,2-.67,5.5-.49,8.31,0,.44.05.86.07,1.26a1.7,1.7,0,0,1-1.26.4,5.33,5.33,0,0,1-2.13-.55,1,1,0,0,0-.48-.1,1.64,1.64,0,0,0-1.61,1.06c-.07.36.07,1.07,1.83,1.77.16.07.37.13.58.2.89.28,2.22.7,2.63,1.66a2.3,2.3,0,0,1-.21,1.91l0,0c-.11.26-2.78,6.34-8.74,7.33a.42.42,0,0,0-.36.45.54.54,0,0,0,.06.25c.24.58,1.35,1.4,5.23,2,.33.05.45.54.63,1.33a9.49,9.49,0,0,0,.23,1,.54.54,0,0,0,.6.43A5,5,0,0,0,19,48a11.58,11.58,0,0,1,2.33-.26,9.8,9.8,0,0,1,1.68.15,8,8,0,0,1,3.2,1.63,9.06,9.06,0,0,0,5.53,2.18h.52a9.06,9.06,0,0,0,5.53-2.18A7.93,7.93,0,0,1,41,47.92a9.71,9.71,0,0,1,1.68-.15A11.45,11.45,0,0,1,45,48a5.12,5.12,0,0,0,.86.11Z"/></g></svg>