<svg id="Layer_1" data-name="Layer 1" xmlns="http://www.w3.org/2000/svg" viewBox="0 0 64 64"><defs><style>.cls-1{fill:#3a3a3a;fill-rule:evenodd;}</style></defs><g id="dark"><path id="twitter" class="cls-1" d="M32,0A32,32,0,1,1,0,32,32,32,0,0,1,32,0ZM26.25,49c14.16,0,21.9-11.73,21.9-21.9,0-.34,0-.67,0-1a15.88,15.88,0,0,0,3.85-4,15.88,15.88,0,0,1-4.42,1.21,7.75,7.75,0,0,0,3.38-4.26A15.59,15.59,0,0,1,46.06,21a7.7,7.7,0,0,0-13.31,5.21A7.18,7.18,0,0,0,33,28a21.82,21.82,0,0,1-15.87-8,7.79,7.79,0,0,0-1,3.87,7.64,7.64,0,0,0,3.43,6.4,7.61,7.61,0,0,1-3.48-1v.09a7.69,7.69,0,0,0,6.18,7.55,7.54,7.54,0,0,1-2,.28A7.07,7.07,0,0,1,18.7,37a7.68,7.68,0,0,0,7.18,5.35,15.45,15.45,0,0,1-9.56,3.29,12.55,12.55,0,0,1-1.84-.12A21.32,21.32,0,0,0,26.25,49Z"/></g></svg>