<svg id="Layer_1" data-name="Layer 1" xmlns="http://www.w3.org/2000/svg" viewBox="0 0 64 64"><defs><style>.cls-1{fill:#3a3a3a;fill-rule:evenodd;}</style></defs><g id="dark"><path id="vimeo" class="cls-1" d="M32,0A32,32,0,1,1,0,32,32,32,0,0,1,32,0ZM49.9,25.73q-.24,5.47-7.65,15-7.64,9.95-12.94,9.94c-2.19,0-4-2-5.55-6q-1.5-5.55-3-11.1-1.68-6-3.61-6a11.69,11.69,0,0,0-3,1.77L12.41,27q2.77-2.45,5.47-4.88,3.71-3.19,5.56-3.37,4.36-.41,5.38,6c.73,4.6,1.24,7.47,1.52,8.59Q31.6,39,33.12,39q1.17,0,3.54-3.72t2.52-5.66q.34-3.21-2.52-3.21a7,7,0,0,0-2.78.62q2.77-9.06,10.56-8.8,5.81.15,5.46,7.48Z"/></g></svg>