<svg id="Layer_1" data-name="Layer 1" xmlns="http://www.w3.org/2000/svg" viewBox="0 0 64 64"><defs><style>.cls-1{fill:#3a3a3a;fill-rule:evenodd;}</style></defs><g id="dark"><path id="whats_ap" data-name="whats ap" class="cls-1" d="M32,0A32,32,0,1,1,0,32,32,32,0,0,1,32,0ZM47.19,16.36A20.3,20.3,0,0,0,15.25,40.84L12.37,51.35l10.76-2.82A20.32,20.32,0,0,0,32.82,51h0A20.3,20.3,0,0,0,47.19,16.36ZM32.84,48.07h0a16.76,16.76,0,0,1-8.59-2.36l-.62-.36L17.25,47,19,40.79l-.4-.64a16.86,16.86,0,1,1,14.29,7.92Zm9.25-12.63c-.51-.26-3-1.48-3.47-1.65s-.8-.26-1.14.25-1.31,1.65-1.6,2-.6.38-1.1.12a13.62,13.62,0,0,1-4.08-2.51,15.46,15.46,0,0,1-2.82-3.51c-.29-.51,0-.78.23-1s.51-.6.76-.89a4,4,0,0,0,.5-.85.9.9,0,0,0,0-.89c-.12-.25-1.13-2.75-1.56-3.76s-.83-.86-1.14-.87l-1,0a1.83,1.83,0,0,0-1.35.63,5.72,5.72,0,0,0-1.77,4.23,10,10,0,0,0,2.06,5.24c.26.34,3.58,5.46,8.66,7.65a28.62,28.62,0,0,0,2.89,1.07,6.93,6.93,0,0,0,3.2.2c1-.15,3-1.23,3.42-2.41A4.21,4.21,0,0,0,43.06,36c-.13-.2-.46-.33-1-.58Z"/></g></svg>