<svg id="Layer_1" data-name="Layer 1" xmlns="http://www.w3.org/2000/svg" viewBox="0 0 64 64"><defs><style>.cls-1{fill:#3a3a3a;fill-rule:evenodd;}</style></defs><g id="dark"><path id="youtube" class="cls-1" d="M32,0A32,32,0,1,1,0,32,32,32,0,0,1,32,0ZM51.16,22.37a5,5,0,0,0-3.53-3.54C44.51,18,32,18,32,18s-12.51,0-15.63.83a5,5,0,0,0-3.53,3.54C12,25.49,12,32,12,32s0,6.51.84,9.63a5,5,0,0,0,3.53,3.54C19.49,46,32,46,32,46s12.51,0,15.63-.83a5,5,0,0,0,3.53-3.54C52,38.51,52,32,52,32s0-6.51-.84-9.63ZM28,38V26l10.39,6L28,38Z"/></g></svg>